<!DOCTYPE svg PUBLIC "-//W3C//DTD SVG 1.1//EN" "http://www.w3.org/Graphics/SVG/1.1/DTD/svg11.dtd">
<svg xmlns="http://www.w3.org/2000/svg" xmlns:xlink="http://www.w3.org/1999/xlink" width="567px" height="471px" version="1.1"><defs><clipPath id="mx-clip-4-31-262-26-0"><rect x="4" y="31" width="262" height="26"/></clipPath><clipPath id="mx-clip-4-57-262-26-0"><rect x="4" y="57" width="262" height="26"/></clipPath><clipPath id="mx-clip-4-83-262-26-0"><rect x="4" y="83" width="262" height="26"/></clipPath><clipPath id="mx-clip-4-109-262-26-0"><rect x="4" y="109" width="262" height="26"/></clipPath><clipPath id="mx-clip-4-135-262-26-0"><rect x="4" y="135" width="262" height="26"/></clipPath><clipPath id="mx-clip-4-161-262-26-0"><rect x="4" y="161" width="262" height="26"/></clipPath><clipPath id="mx-clip-300-31-262-26-0"><rect x="300" y="31" width="262" height="26"/></clipPath><clipPath id="mx-clip-300-57-262-26-0"><rect x="300" y="57" width="262" height="26"/></clipPath><clipPath id="mx-clip-300-83-262-26-0"><rect x="300" y="83" width="262" height="26"/></clipPath><clipPath id="mx-clip-300-109-262-26-0"><rect x="300" y="109" width="262" height="26"/></clipPath><clipPath id="mx-clip-300-135-262-26-0"><rect x="300" y="135" width="262" height="26"/></clipPath><clipPath id="mx-clip-300-161-262-26-0"><rect x="300" y="161" width="262" height="26"/></clipPath><clipPath id="mx-clip-4-238-558-26-0"><rect x="4" y="238" width="558" height="26"/></clipPath><clipPath id="mx-clip-4-264-558-26-0"><rect x="4" y="264" width="558" height="26"/></clipPath><clipPath id="mx-clip-4-290-558-26-0"><rect x="4" y="290" width="558" height="26"/></clipPath><clipPath id="mx-clip-4-316-558-26-0"><rect x="4" y="316" width="558" height="26"/></clipPath><clipPath id="mx-clip-4-342-558-26-0"><rect x="4" y="342" width="558" height="26"/></clipPath><clipPath id="mx-clip-4-368-558-26-0"><rect x="4" y="368" width="558" height="26"/></clipPath><clipPath id="mx-clip-4-394-558-26-0"><rect x="4" y="394" width="558" height="26"/></clipPath><clipPath id="mx-clip-4-420-558-26-0"><rect x="4" y="420" width="558" height="26"/></clipPath><clipPath id="mx-clip-4-446-558-26-0"><rect x="4" y="446" width="558" height="26"/></clipPath></defs><g transform="translate(0.5,0.5)"><rect x="0" y="0" width="270" height="182" fill="#ffffff" stroke="#6c8ebf" pointer-events="none"/><path d="M 0 26 L 0 0 L 270 0 L 270 26 Z" fill="#dae8fc" stroke="#6c8ebf" stroke-miterlimit="10" pointer-events="none"/><g fill="#000000" font-family="Lucida Console" font-weight="bold" text-anchor="middle" font-size="12px"><text x="134.5" y="17.5">Recipe</text></g><g fill="#000000" font-family="Lucida Console" clip-path="url(#mx-clip-4-31-262-26-0)" font-size="12px"><text x="5.5" y="43.5">(PK) id:int</text></g><g fill="#000000" font-family="Lucida Console" clip-path="url(#mx-clip-4-57-262-26-0)" font-size="12px"><text x="5.5" y="69.5">name:varchar(32)</text></g><g fill="#000000" font-family="Lucida Console" clip-path="url(#mx-clip-4-83-262-26-0)" font-size="12px"><text x="5.5" y="95.5">description:varchar(64)</text></g><g fill="#000000" font-family="Lucida Console" clip-path="url(#mx-clip-4-109-262-26-0)" font-size="12px"><text x="5.5" y="121.5">isInitial:boolean = false</text></g><g fill="#000000" font-family="Lucida Console" clip-path="url(#mx-clip-4-135-262-26-0)" font-size="12px"><text x="5.5" y="147.5">createTime:timestamp = now</text></g><g fill="#000000" font-family="Lucida Console" clip-path="url(#mx-clip-4-161-262-26-0)" font-size="12px"><text x="5.5" y="173.5">updateTime:timestamp = null</text></g><rect x="296" y="0" width="270" height="182" fill="#ffffff" stroke="#6c8ebf" pointer-events="none"/><path d="M 296 26 L 296 0 L 566 0 L 566 26 Z" fill="#dae8fc" stroke="#6c8ebf" stroke-miterlimit="10" pointer-events="none"/><g fill="#000000" font-family="Lucida Console" font-weight="bold" text-anchor="middle" font-size="12px"><text x="430.5" y="17.5">Ingredient</text></g><g fill="#000000" font-family="Lucida Console" clip-path="url(#mx-clip-300-31-262-26-0)" font-size="12px"><text x="301.5" y="43.5">(PK) id:int</text></g><g fill="#000000" font-family="Lucida Console" clip-path="url(#mx-clip-300-57-262-26-0)" font-size="12px"><text x="301.5" y="69.5">name:varchar(32)</text></g><g fill="#000000" font-family="Lucida Console" clip-path="url(#mx-clip-300-83-262-26-0)" font-size="12px"><text x="301.5" y="95.5">unit:char(1)</text></g><g fill="#000000" font-family="Lucida Console" clip-path="url(#mx-clip-300-109-262-26-0)" font-size="12px"><text x="301.5" y="121.5">isInitial:boolean = false</text></g><g fill="#000000" font-family="Lucida Console" clip-path="url(#mx-clip-300-135-262-26-0)" font-size="12px"><text x="301.5" y="147.5">createTime:timestamp = now</text></g><g fill="#000000" font-family="Lucida Console" clip-path="url(#mx-clip-300-161-262-26-0)" font-size="12px"><text x="301.5" y="173.5">updateTime:timestamp = null</text></g><rect x="0" y="207" width="566" height="260" fill="#ffffff" stroke="#6c8ebf" pointer-events="none"/><path d="M 0 233 L 0 207 L 566 207 L 566 233 Z" fill="#dae8fc" stroke="#6c8ebf" stroke-miterlimit="10" pointer-events="none"/><g fill="#000000" font-family="Lucida Console" font-weight="bold" text-anchor="middle" font-size="12px"><text x="282.5" y="224.5">Recipe_Ingredient</text></g><g fill="#000000" font-family="Lucida Console" clip-path="url(#mx-clip-4-238-558-26-0)" font-size="12px"><text x="5.5" y="250.5">(FK) recipe_id:int -&gt; Recipe(id)</text></g><g fill="#000000" font-family="Lucida Console" clip-path="url(#mx-clip-4-264-558-26-0)" font-size="12px"><text x="5.5" y="276.5">(FK) ingredient_id:int -&gt; Ingredient(id)</text></g><g fill="#000000" font-family="Lucida Console" clip-path="url(#mx-clip-4-290-558-26-0)" font-size="12px"><text x="5.5" y="302.5">step:int</text></g><g fill="#000000" font-family="Lucida Console" clip-path="url(#mx-clip-4-316-558-26-0)" font-size="12px"><text x="5.5" y="328.5">amount:double</text></g><g fill="#000000" font-family="Lucida Console" clip-path="url(#mx-clip-4-342-558-26-0)" font-size="12px"><text x="5.5" y="354.5">instructions:varchar(64)</text></g><g fill="#000000" font-family="Lucida Console" clip-path="url(#mx-clip-4-368-558-26-0)" font-size="12px"><text x="5.5" y="380.5">isInitial:boolean = false</text></g><g fill="#000000" font-family="Lucida Console" clip-path="url(#mx-clip-4-394-558-26-0)" font-size="12px"><text x="5.5" y="406.5">createTime:timestamp = now</text></g><g fill="#000000" font-family="Lucida Console" clip-path="url(#mx-clip-4-420-558-26-0)" font-size="12px"><text x="5.5" y="432.5">updateTime:timestamp = null</text></g><g fill="#000000" font-family="Lucida Console" clip-path="url(#mx-clip-4-446-558-26-0)" font-size="12px"><text x="5.5" y="458.5">(PK) [recipe_id, ingredient_id]</text></g></g></svg>